<svg xmlns="http://www.w3.org/2000/svg" width="26" height="24"><g fill="none" fill-rule="evenodd"><path d="M2 0h24v24H2z"/><path fill="#000" fill-rule="nonzero" d="M14 4a7.49 7.49 0 0 1 7.35 6.04c2.6.18 4.65 2.32 4.65 4.96 0 2.76-2.24 5-5 5H8c-1.275 0-2.458-.4-3.43-1.079.318-.09.607-.258.85-.501.381-.382.58-.875.58-1.42 0-.545-.199-1.038-.58-1.42A1.966 1.966 0 0 0 4 15c.545 0 1.038-.199 1.42-.58.381-.382.58-.875.58-1.42 0-.545-.199-1.038-.58-1.42A1.966 1.966 0 0 0 4 11c.545 0 1.038-.199 1.42-.58C5.8 10.038 6 9.545 6 9c0-.216-.031-.424-.093-.62.456-.17.94-.287 1.443-.34A7.496 7.496 0 0 1 14 4Zm0 2v.534l.001.154v.56l.002.689v.519l.01 5.938v.591l.002.824.001.497v.23l.001.418v.187l.001.462V18H21c1.655 0 3-1.345 3-3 0-1.51-1.127-2.76-2.615-2.948l-.173-.017-1.528-.106-.296-1.502A5.49 5.49 0 0 0 14 6ZM4 16c.283 0 .52.096.713.288.191.191.287.429.287.712s-.096.52-.287.712A.968.968 0 0 1 4 18H2a.968.968 0 0 1-.712-.288A.968.968 0 0 1 1 17c0-.283.096-.52.288-.712A.968.968 0 0 1 2 16h2Zm0-4c.283 0 .52.096.713.287.191.192.287.43.287.713s-.096.52-.287.713A.968.968 0 0 1 4 14H1a.968.968 0 0 1-.713-.287A.968.968 0 0 1 0 13c0-.283.096-.52.287-.713A.968.968 0 0 1 1 12h3Zm0-4c.283 0 .52.096.713.287.191.192.287.43.287.713s-.096.52-.287.713A.968.968 0 0 1 4 10H2a.968.968 0 0 1-.712-.287A.968.968 0 0 1 1 9c0-.283.096-.52.288-.713A.968.968 0 0 1 2 8h2Z"/></g></svg>