<svg xmlns="http://www.w3.org/2000/svg" xmlns:xlink="http://www.w3.org/1999/xlink" width="80" height="80"><defs><filter id="a" width="142.2%" height="142.2%" x="-21.1%" y="-16.4%" filterUnits="objectBoundingBox"><feOffset dy="3" in="SourceAlpha" result="shadowOffsetOuter1"/><feGaussianBlur in="shadowOffsetOuter1" result="shadowBlurOuter1" stdDeviation="4"/><feColorMatrix in="shadowBlurOuter1" result="shadowMatrixOuter1" values="0 0 0 0 0 0 0 0 0 0 0 0 0 0 0 0 0 0 0.12 0"/><feOffset dy="3" in="SourceAlpha" result="shadowOffsetOuter2"/><feGaussianBlur in="shadowOffsetOuter2" result="shadowBlurOuter2" stdDeviation="1.5"/><feColorMatrix in="shadowBlurOuter2" result="shadowMatrixOuter2" values="0 0 0 0 0 0 0 0 0 0 0 0 0 0 0 0 0 0 0.14 0"/><feOffset dy="6" in="SourceAlpha" result="shadowOffsetOuter3"/><feGaussianBlur in="shadowOffsetOuter3" result="shadowBlurOuter3" stdDeviation="1.5"/><feColorMatrix in="shadowBlurOuter3" result="shadowMatrixOuter3" values="0 0 0 0 0 0 0 0 0 0 0 0 0 0 0 0 0 0 0.2 0"/><feMerge><feMergeNode in="shadowMatrixOuter1"/><feMergeNode in="shadowMatrixOuter2"/><feMergeNode in="shadowMatrixOuter3"/></feMerge></filter><rect id="b" width="64" height="64" x="9" y="8" rx="32"/></defs><g fill="none" fill-rule="evenodd"><use xlink:href="#b" fill="#000" filter="url(#a)"/><use xlink:href="#b" fill="#3D4051"/><path fill="#FFF" fill-rule="nonzero" d="M25 58c-.567 0-1.042-.192-1.425-.575C23.192 57.042 23 56.567 23 56c0-.567.192-1.042.575-1.425.383-.383.858-.575 1.425-.575h2V26c0-1.1.392-2.042 1.175-2.825C28.958 22.392 29.9 22 31 22h20c1.1 0 2.042.392 2.825 1.175C54.608 23.958 55 24.9 55 26v28h2c.567 0 1.042.192 1.425.575.383.383.575.858.575 1.425 0 .567-.192 1.042-.575 1.425-.383.383-.858.575-1.425.575H25Zm20-16c.567 0 1.042-.192 1.425-.575.383-.383.575-.858.575-1.425 0-.567-.192-1.042-.575-1.425C46.042 38.192 45.567 38 45 38c-.567 0-1.042.192-1.425.575-.383.383-.575.858-.575 1.425 0 .567.192 1.042.575 1.425.383.383.858.575 1.425.575Z"/></g></svg>