<svg xmlns="http://www.w3.org/2000/svg" width="24" height="24"><path fill="#000" fill-rule="nonzero" d="m12.067 21.921-.043.014c-.166.043-.34.065-.524.065-.55 0-1.02-.196-1.412-.587A1.926 1.926 0 0 1 9.5 20h.803a6.03 6.03 0 0 0 1.764 1.921ZM9.5 17c0 .702.12 1.375.342 2H8.5a.968.968 0 0 1-.713-.288A.968.968 0 0 1 7.5 18c0-.283.096-.52.287-.712A.968.968 0 0 1 8.5 17h1Zm2-15c2.083 0 3.854.73 5.313 2.188C18.27 5.646 19 7.417 19 9.5c0 .829-.127 1.62-.382 2.373A6.002 6.002 0 0 0 9.582 16H7.75a7.662 7.662 0 0 1-2.737-2.75A7.278 7.278 0 0 1 4 9.5c0-2.083.73-3.854 2.188-5.313C7.646 2.73 9.416 2 11.5 2Zm4.286 10c.233 0 .438.075.613.225.175.15.287.342.337.575l.15.7a4.626 4.626 0 0 1 1.1.65l.675-.225a.963.963 0 0 1 1.175.425l.2.35a.98.98 0 0 1 .125.65.88.88 0 0 1-.325.575l-.55.475c.033.217.05.425.05.625s-.017.408-.05.625l.55.475c.183.15.292.337.325.563a.954.954 0 0 1-.125.637l-.225.375a1.012 1.012 0 0 1-.475.4.894.894 0 0 1-.625.025l-.725-.225a4.352 4.352 0 0 1-.537.338c-.175.091-.363.179-.563.262l-.15.725a.958.958 0 0 1-.95.775h-.4a.912.912 0 0 1-.612-.225 1.016 1.016 0 0 1-.338-.575l-.15-.7c-.2-.083-.387-.17-.562-.262a4.352 4.352 0 0 1-.538-.338l-.725.225a.931.931 0 0 1-.637-.025 1.004 1.004 0 0 1-.488-.4l-.2-.35a.98.98 0 0 1-.125-.65.88.88 0 0 1 .325-.575l.55-.475a4.269 4.269 0 0 1 0-1.3l-.55-.475a.872.872 0 0 1-.325-.563.954.954 0 0 1 .125-.637l.225-.375c.117-.183.275-.317.475-.4a.894.894 0 0 1 .625-.025l.725.225c.183-.133.363-.246.538-.338.175-.091.362-.179.562-.262l.15-.725a.958.958 0 0 1 .95-.775h.4Zm-.2 3c-.55 0-1.02.196-1.412.588A1.926 1.926 0 0 0 13.586 17c0 .55.196 1.02.588 1.413.391.391.862.587 1.412.587.55 0 1.02-.196 1.413-.587.391-.392.587-.863.587-1.413s-.196-1.02-.587-1.412A1.926 1.926 0 0 0 15.586 15Z"/></svg>