<svg xmlns="http://www.w3.org/2000/svg" xmlns:xlink="http://www.w3.org/1999/xlink" width="80" height="80"><defs><filter id="a" width="142.2%" height="142.2%" x="-21.1%" y="-16.4%" filterUnits="objectBoundingBox"><feOffset dy="3" in="SourceAlpha" result="shadowOffsetOuter1"/><feGaussianBlur in="shadowOffsetOuter1" result="shadowBlurOuter1" stdDeviation="4"/><feColorMatrix in="shadowBlurOuter1" result="shadowMatrixOuter1" values="0 0 0 0 0 0 0 0 0 0 0 0 0 0 0 0 0 0 0.12 0"/><feOffset dy="3" in="SourceAlpha" result="shadowOffsetOuter2"/><feGaussianBlur in="shadowOffsetOuter2" result="shadowBlurOuter2" stdDeviation="1.5"/><feColorMatrix in="shadowBlurOuter2" result="shadowMatrixOuter2" values="0 0 0 0 0 0 0 0 0 0 0 0 0 0 0 0 0 0 0.14 0"/><feOffset dy="6" in="SourceAlpha" result="shadowOffsetOuter3"/><feGaussianBlur in="shadowOffsetOuter3" result="shadowBlurOuter3" stdDeviation="1.5"/><feColorMatrix in="shadowBlurOuter3" result="shadowMatrixOuter3" values="0 0 0 0 0 0 0 0 0 0 0 0 0 0 0 0 0 0 0.2 0"/><feMerge><feMergeNode in="shadowMatrixOuter1"/><feMergeNode in="shadowMatrixOuter2"/><feMergeNode in="shadowMatrixOuter3"/></feMerge></filter><rect id="b" width="64" height="64" x="9" y="8" rx="32"/></defs><g fill="none" fill-rule="evenodd"><use xlink:href="#b" fill="#000" filter="url(#a)"/><use xlink:href="#b" fill="#3D4051"/><path fill="#FFF" fill-rule="nonzero" d="M41 60c-1.1 0-2.042-.392-2.825-1.175C37.392 58.042 37 57.1 37 56h8c0 1.1-.392 2.042-1.175 2.825C43.042 59.608 42.1 60 41 60Zm-6-6c-.567 0-1.042-.192-1.425-.575C33.192 53.042 33 52.567 33 52c0-.567.192-1.042.575-1.425.383-.383.858-.575 1.425-.575h12c.567 0 1.042.192 1.425.575.383.383.575.858.575 1.425 0 .567-.192 1.042-.575 1.425-.383.383-.858.575-1.425.575H35Zm-1.5-6a15.324 15.324 0 0 1-5.475-5.5C26.675 40.2 26 37.7 26 35c0-4.167 1.458-7.708 4.375-10.625S36.833 20 41 20s7.708 1.458 10.625 4.375S56 30.833 56 35c0 2.7-.675 5.2-2.025 7.5A15.324 15.324 0 0 1 48.5 48h-15Z"/></g></svg>