<svg xmlns="http://www.w3.org/2000/svg" width="24" height="24"><path fill="#000" fill-rule="nonzero" d="M12.5 22c-.55 0-1.02-.196-1.412-.587A1.926 1.926 0 0 1 10.5 20h4c0 .55-.196 1.02-.588 1.413A1.926 1.926 0 0 1 12.5 22Zm-3-3a.968.968 0 0 1-.713-.288A.968.968 0 0 1 8.5 18c0-.283.096-.52.287-.712A.968.968 0 0 1 9.5 17h6c.283 0 .52.096.712.288.192.191.288.429.288.712s-.096.52-.288.712A.968.968 0 0 1 15.5 19h-6Zm-.75-3a7.662 7.662 0 0 1-2.737-2.75A7.278 7.278 0 0 1 5 9.5c0-2.083.73-3.854 2.188-5.313C8.646 2.73 10.416 2 12.5 2s3.854.73 5.313 2.188C19.27 5.646 20 7.417 20 9.5c0 1.35-.337 2.6-1.012 3.75A7.662 7.662 0 0 1 16.25 16h-7.5Z"/></svg>